<?xml version="1.0" encoding="UTF-8"?>
<svg width="72px" height="72px" viewBox="0 0 72 72" version="1.1" xmlns="http://www.w3.org/2000/svg" xmlns:xlink="http://www.w3.org/1999/xlink">
    <!-- Generator: Sketch 55 (78076) - https://sketchapp.com -->
    <title>icon_6</title>
    <desc>Created with Sketch.</desc>
    <g id="current" stroke="none" stroke-width="1" fill="none" fill-rule="evenodd">
        <g id="DaxBase-07" transform="translate(-1164.000000, -2048.000000)" fill="#05C9D8" fill-rule="nonzero">
            <g id="part-2" transform="translate(379.000000, 1910.000000)">
                <g id="icon_6" transform="translate(785.000000, 138.000000)">
                    <path d="M71.0308867,21.0239826 L56.0848473,0.847020279 C55.6896802,0.314498512 55.0661337,0 54.402798,0 C53.7394621,0 53.1153706,0.314498512 52.7212937,0.847020279 L37.7752543,21.0239826 C37.3048691,21.6589753 37.2323764,22.5054505 37.5882993,23.2113008 C37.9436774,23.9171512 38.6669694,24.3630087 39.4573038,24.3630087 L44.8370276,24.3630087 L44.8370276,34.4792877 C43.7834302,33.93641 42.590298,33.627907 41.325218,33.627907 L37.5888445,33.627907 C33.3444767,33.627907 29.8915334,37.0808503 29.8915334,41.325218 L29.8915334,45.6884085 C28.837936,45.1455306 27.6442588,44.8370276 26.3797239,44.8370276 L22.6433503,44.8370276 C18.3989826,44.8370276 14.9460392,48.290516 14.9460392,52.5348837 L14.9460392,56.8975291 C13.8918968,56.3551962 12.6987645,56.0461482 11.4342296,56.0461482 L7.69731098,56.0461482 C3.45294335,56.0461482 0,59.4996366 0,63.7440043 L0,69.3488372 C0,70.5049055 0.936954977,71.4418605 2.09302326,71.4418605 L61.875545,71.4418605 C63.0316133,71.4418605 63.9685683,70.5049055 63.9685683,69.3488372 L63.9685683,24.3630087 L69.3488372,24.3630087 C70.1391714,24.3630087 70.8624636,23.9171512 71.2178415,23.2113008 C71.5737645,22.5054505 71.5012718,21.6589753 71.0308867,21.0239826 Z M4.18604651,63.7440043 C4.18604651,61.8079578 5.76126447,60.2321947 7.69731098,60.2321947 L11.4336846,60.2321947 C13.3702761,60.2321947 14.9454942,61.8079578 14.9454942,63.7440043 L14.9454942,67.255814 L4.18604651,67.255814 L4.18604651,63.7440043 Z M19.1315407,63.7440043 L19.1315407,52.5348837 C19.1315407,50.5982922 20.7067588,49.0230741 22.6433503,49.0230741 L26.3797239,49.0230741 C28.3157704,49.0230741 29.8909884,50.5982922 29.8909884,52.5348837 L29.8909884,67.255814 L19.1315407,67.255814 L19.1315407,63.7440043 Z M34.0775799,52.5348837 L34.0775799,41.325218 C34.0775799,39.3891714 35.652798,37.8139535 37.5888445,37.8139535 L41.325218,37.8139535 C43.2612645,37.8139535 44.8370276,39.3891714 44.8370276,41.325218 L44.8370276,67.255814 L34.0775799,67.255814 L34.0775799,52.5348837 Z M61.875545,20.1769621 C60.7194767,20.1769621 59.7825218,21.1139171 59.7825218,22.2699854 L59.7825218,67.255814 L49.0230741,67.255814 L49.0230741,22.2699854 C49.0230741,21.1139171 48.0855741,20.1769621 46.9300508,20.1769621 L43.612282,20.1769621 L54.402798,5.60919335 L65.193859,20.1769621 L61.875545,20.1769621 Z" id="Shape"></path>
                </g>
            </g>
        </g>
    </g>
</svg>