<?xml version="1.0" encoding="UTF-8"?>
<svg width="70px" height="70px" viewBox="0 0 70 70" version="1.1" xmlns="http://www.w3.org/2000/svg" xmlns:xlink="http://www.w3.org/1999/xlink">
    <!-- Generator: Sketch 55 (78076) - https://sketchapp.com -->
    <title>icon_4</title>
    <desc>Created with Sketch.</desc>
    <g id="current" stroke="none" stroke-width="1" fill="none" fill-rule="evenodd">
        <g id="DaxBase-07" transform="translate(-379.000000, -2050.000000)" fill="#05C9D8" fill-rule="nonzero">
            <g id="part-2" transform="translate(379.000000, 1910.000000)">
                <g id="icon_4" transform="translate(0.000000, 140.000000)">
                    <path d="M65.1689147,54.2292786 C66.4794922,52.5918579 67.265625,50.5170441 67.265625,48.2617187 C67.265625,44.0394593 64.5162964,40.4500579 60.7148743,39.1822052 C62.232132,35.6798553 63.0273437,31.8746948 63.0273437,28.0273437 C63.0273437,12.5727845 50.4545593,-2.84217094e-14 35,-2.84217094e-14 C19.5454407,-2.84217094e-14 6.97265625,12.5727845 6.97265625,28.0273437 C6.97265625,31.8725586 7.76679996,35.6803893 9.28352359,39.1827393 C5.48316959,40.4505921 2.734375,44.0399933 2.734375,48.2617187 C2.734375,50.5170441 3.52050781,52.5918579 4.83108527,54.2292786 C2.00912469,55.3134155 0,58.0509948 0,61.25 L0,70 L24.609375,70 L24.609375,61.25 C24.609375,58.0509948 22.6002503,55.3134155 19.7782897,54.2292786 C20.2509308,53.6386108 20.6546784,52.991867 20.9783172,52.2997284 C25.2278138,54.7622681 30.0279235,56.0546875 35,56.0546875 C39.968338,56.0546875 44.7716522,54.7622681 49.0216828,52.2997284 C49.3453216,52.991867 49.7490692,53.6386108 50.2217103,54.2292786 C47.3997497,55.3134155 45.390625,58.0509948 45.390625,61.25 L45.390625,70 L70,70 L70,61.25 C70,58.0509948 67.9908753,55.3134155 65.1689147,54.2292786 Z M63.1640625,48.2617187 C63.1640625,51.2770081 60.7106019,53.7304687 57.6953125,53.7304687 C54.6800231,53.7304687 52.2265625,51.2770081 52.2265625,48.2617187 C52.2265625,45.2464294 54.6800231,42.7929687 57.6953125,42.7929687 C60.7106019,42.7929687 63.1640625,45.2464294 63.1640625,48.2617187 Z M12.3046875,42.7929687 C15.3199769,42.7929687 17.7734375,45.2464294 17.7734375,48.2617187 C17.7734375,51.2770081 15.3199769,53.7304687 12.3046875,53.7304687 C9.28939812,53.7304687 6.8359375,51.2770081 6.8359375,48.2617187 C6.8359375,45.2464294 9.28939812,42.7929687 12.3046875,42.7929687 Z M20.5078125,65.8984375 L4.1015625,65.8984375 L4.1015625,61.25 C4.1015625,59.3653107 5.63484195,57.8320312 7.51953125,57.8320312 L17.0898438,57.8320312 C18.974533,57.8320312 20.5078125,59.3653107 20.5078125,61.25 L20.5078125,65.8984375 Z M21.8691253,48.0304718 C21.7559051,43.3056641 18.204422,39.4198608 13.625412,38.7848664 C11.9548797,35.4678345 11.0742188,31.7689515 11.0742188,28.0273437 C11.0742188,14.8345184 21.8071746,4.1015625 35,4.1015625 C48.1928254,4.1015625 58.9257812,14.8345184 58.9257812,28.0273437 C58.9257812,31.7710876 58.0445863,35.4667663 56.3735199,38.7848664 C51.7945099,39.4203949 48.2435609,43.3061981 48.1308747,48.0304718 C44.2295837,50.5982209 39.7018433,51.953125 35,51.953125 C30.2944183,51.953125 25.7704163,50.5987549 21.8691253,48.0304718 Z M65.8984375,65.8984375 L49.4921875,65.8984375 L49.4921875,61.25 C49.4921875,59.3653107 51.025467,57.8320312 52.9101562,57.8320312 L62.4804688,57.8320312 C64.365158,57.8320312 65.8984375,59.3653107 65.8984375,61.25 L65.8984375,65.8984375 Z" id="Shape"></path>
                    <path d="M37.0507812,45.8007812 C37.0507812,46.9335174 36.1327362,47.8515625 35,47.8515625 C33.8672638,47.8515625 32.9492188,46.9335174 32.9492188,45.8007812 C32.9492188,44.6680451 33.8672638,43.75 35,43.75 C36.1327362,43.75 37.0507812,44.6680451 37.0507812,45.8007812 Z" id="Path"></path>
                    <path d="M37.0507812,10.2539062 C37.0507812,11.3866424 36.1327362,12.3046875 35,12.3046875 C33.8672638,12.3046875 32.9492188,11.3866424 32.9492188,10.2539062 C32.9492188,9.12117008 33.8672638,8.203125 35,8.203125 C36.1327362,8.203125 37.0507812,9.12117008 37.0507812,10.2539062 Z" id="Path"></path>
                    <path d="M19.2773438,28.0273438 C19.2773438,29.1600799 18.3592987,30.078125 17.2265625,30.078125 C16.0938263,30.078125 15.1757812,29.1600799 15.1757812,28.0273438 C15.1757812,26.8946076 16.0938263,25.9765625 17.2265625,25.9765625 C18.3592987,25.9765625 19.2773438,26.8946076 19.2773438,28.0273438 Z" id="Path"></path>
                    <path d="M54.8242188,28.0273438 C54.8242188,29.1600799 53.9061737,30.078125 52.7734375,30.078125 C51.6407013,30.078125 50.7226562,29.1600799 50.7226562,28.0273438 C50.7226562,26.8946076 51.6407013,25.9765625 52.7734375,25.9765625 C53.9061737,25.9765625 54.8242188,26.8946076 54.8242188,28.0273438 Z" id="Path"></path>
                    <polygon id="Path" points="35.7872009 25.9765625 22.700119 14.1984557 19.956131 17.2468568 34.2127991 30.078125 46.484375 30.078125 46.484375 25.9765625"></polygon>
                </g>
            </g>
        </g>
    </g>
</svg>