<?xml version="1.0" encoding="UTF-8"?>
<svg width="70px" height="70px" viewBox="0 0 70 70" version="1.1" xmlns="http://www.w3.org/2000/svg" xmlns:xlink="http://www.w3.org/1999/xlink">
    <!-- Generator: Sketch 55 (78076) - https://sketchapp.com -->
    <title>icon_1</title>
    <desc>Created with Sketch.</desc>
    <g id="current" stroke="none" stroke-width="1" fill="none" fill-rule="evenodd">
        <g id="DaxBase-07" transform="translate(-380.000000, -1922.000000)" fill="#05C9D8" fill-rule="nonzero">
            <g id="part-2" transform="translate(379.000000, 1910.000000)">
                <g id="icon_1" transform="translate(1.000000, 12.000000)">
                    <path d="M6.39488462e-14,0 L69.4573643,0 L69.4573643,4.06976744 L63.2170543,4.06976744 L63.2170543,40.9689922 L6.24031008,40.9689922 L6.24031008,4.06976744 L6.39488462e-14,4.06976744 L6.39488462e-14,0 Z M59.1472868,36.8992248 L59.1472868,4.06976744 L10.3100775,4.06976744 L10.3100775,36.8992248 L59.1472868,36.8992248 Z M40.8709575,56.7292726 C43.2635355,57.9735192 44.9031008,60.4742006 44.9031008,63.3527132 L44.9031008,69.4573643 L24.5542636,69.4573643 L24.5542636,63.3527132 C24.5542636,60.4742006 26.1938288,57.9735192 28.5864068,56.7292726 C27.755496,55.5263597 27.2674419,54.069616 27.2674419,52.5 C27.2674419,48.3857195 30.6144016,45.0387597 34.7286822,45.0387597 C38.8429627,45.0387597 42.1899225,48.3857195 42.1899225,52.5 C42.1899225,54.069616 41.7018684,55.5263597 40.8709575,56.7292726 Z M34.7286822,49.1085271 C32.8586029,49.1085271 31.3372093,50.6299207 31.3372093,52.5 C31.3372093,54.3700793 32.8586029,55.8914729 34.7286822,55.8914729 C36.5987615,55.8914729 38.120155,54.3700793 38.120155,52.5 C38.120155,50.6299207 36.5987615,49.1085271 34.7286822,49.1085271 Z M40.8333333,65.3875969 L40.8333333,63.3527132 C40.8333333,61.4826339 39.3119398,59.9612403 37.4418605,59.9612403 L32.0155039,59.9612403 C30.1454246,59.9612403 28.624031,61.4826339 28.624031,63.3527132 L28.624031,65.3875969 L40.8333333,65.3875969 Z M65.4252211,56.7292726 C67.8177991,57.9735192 69.4573643,60.4742006 69.4573643,63.3527132 L69.4573643,69.4573643 L49.1085271,69.4573643 L49.1085271,63.3527132 C49.1085271,60.4742006 50.7480924,57.9735192 53.1406704,56.7292726 C52.3097595,55.5263597 51.8217054,54.069616 51.8217054,52.5 C51.8217054,48.3857195 55.1686652,45.0387597 59.2829457,45.0387597 C63.3972263,45.0387597 66.744186,48.3857195 66.744186,52.5 C66.744186,54.069616 66.2561319,55.5263597 65.4252211,56.7292726 Z M59.2829457,49.1085271 C57.4128664,49.1085271 55.8914729,50.6299207 55.8914729,52.5 C55.8914729,54.3700793 57.4128664,55.8914729 59.2829457,55.8914729 C61.153025,55.8914729 62.6744186,54.3700793 62.6744186,52.5 C62.6744186,50.6299207 61.153025,49.1085271 59.2829457,49.1085271 Z M65.3875969,65.3875969 L65.3875969,63.3527132 C65.3875969,61.4826339 63.8662033,59.9612403 61.996124,59.9612403 L56.5697674,59.9612403 C54.6996881,59.9612403 53.1782946,61.4826339 53.1782946,63.3527132 L53.1782946,65.3875969 L65.3875969,65.3875969 Z M16.316694,56.7292726 C18.709272,57.9735192 20.3488372,60.4742006 20.3488372,63.3527132 L20.3488372,69.4573643 L7.10542736e-14,69.4573643 L7.10542736e-14,63.3527132 C7.10542736e-14,60.4742006 1.63956523,57.9735192 4.03214326,56.7292726 C3.2012324,55.5263597 2.71317829,54.069616 2.71317829,52.5 C2.71317829,48.3857195 6.06013808,45.0387597 10.1744186,45.0387597 C14.2886991,45.0387597 17.6356589,48.3857195 17.6356589,52.5 C17.6356589,54.069616 17.1476048,55.5263597 16.316694,56.7292726 Z M10.1744186,49.1085271 C8.3043393,49.1085271 6.78294574,50.6299207 6.78294574,52.5 C6.78294574,54.3700793 8.3043393,55.8914729 10.1744186,55.8914729 C12.0444979,55.8914729 13.5658915,54.3700793 13.5658915,52.5 C13.5658915,50.6299207 12.0444979,49.1085271 10.1744186,49.1085271 Z M16.2790698,65.3875969 L16.2790698,63.3527132 C16.2790698,61.4826339 14.7576762,59.9612403 12.8875969,59.9612403 L7.46124031,59.9612403 C5.59116101,59.9612403 4.06976744,61.4826339 4.06976744,63.3527132 L4.06976744,65.3875969 L16.2790698,65.3875969 Z M40.8333333,23.7403101 L44.9031008,23.7403101 L44.9031008,30.7945736 L40.8333333,30.7945736 L40.8333333,23.7403101 Z M16.4147287,23.7403101 L20.4844961,23.7403101 L20.4844961,30.7945736 L16.4147287,30.7945736 L16.4147287,23.7403101 Z M32.6937984,10.1744186 L36.7635659,10.1744186 L36.7635659,30.7945736 L32.6937984,30.7945736 L32.6937984,10.1744186 Z M24.5542636,15.6007752 L28.624031,15.6007752 L28.624031,30.7945736 L24.5542636,30.7945736 L24.5542636,15.6007752 Z M48.9728682,19.6705426 L53.0426357,19.6705426 L53.0426357,30.7945736 L48.9728682,30.7945736 L48.9728682,19.6705426 Z" id="Combined-Shape"></path>
                </g>
            </g>
        </g>
    </g>
</svg>