<?xml version="1.0" encoding="UTF-8"?>
<svg width="70px" height="75px" viewBox="0 0 70 75" version="1.1" xmlns="http://www.w3.org/2000/svg" xmlns:xlink="http://www.w3.org/1999/xlink">
    <!-- Generator: Sketch 55 (78076) - https://sketchapp.com -->
    <title>icon_3</title>
    <desc>Created with Sketch.</desc>
    <g id="current" stroke="none" stroke-width="1" fill="none" fill-rule="evenodd">
        <g id="DaxBase-07" transform="translate(-1162.000000, -1921.000000)" fill="#05C9D8" fill-rule="nonzero">
            <g id="part-2" transform="translate(379.000000, 1910.000000)">
                <g id="icon_3" transform="translate(821.928046, 45.473811) rotate(40.000000) translate(-821.928046, -45.473811) translate(799.928046, 4.973811)">
                    <path d="M41.1761194,28.6656716 L25.0701493,14.5626866 C24.2164179,13.8238806 23.1328358,13.4134328 22,13.4134328 C20.8671642,13.4134328 19.7835821,13.8238806 18.9298507,14.5626866 L13.2164179,19.5701493 C12.8880597,18.3552239 12.7074627,17.0746269 12.7074627,15.7447761 C12.7074627,12.5268657 13.7253731,9.50597015 15.5641791,7.25671642 C17.3044776,5.12238806 19.6029851,3.94029851 22,3.94029851 C27.1223881,3.94029851 31.2925373,9.22686567 31.2925373,15.7447761 C31.2925373,16.8283582 32.1791045,17.7149254 33.2626866,17.7149254 L33.2626866,17.7149254 C34.3462687,17.7149254 35.2328358,16.8283582 35.2328358,15.7447761 C35.2328358,7.05970149 29.2895522,0 22,0 C18.3880597,0 15.0223881,1.69104478 12.5104478,4.76119403 C10.0970149,7.71641791 8.76716418,11.6074627 8.76716418,15.7447761 C8.76716418,18.0761194 9.19402985,20.3253731 9.99850746,22.3940299 L2.84029851,28.6656716 C1.05074627,30.241791 0.0164179104,32.5074627 0.0164179104,34.8880597 L0.0164179104,70.2522388 C0.0164179104,75.7029851 4.44925373,80.1358209 9.9,80.1358209 L34.1164179,80.1358209 C39.5671642,80.1358209 44,75.7029851 44,70.2522388 L44,34.8880597 C44,32.5074627 42.9656716,30.241791 41.1761194,28.6656716 Z M40.0597015,70.2522388 C40.0597015,73.5358209 37.4,76.1955224 34.1164179,76.1955224 L9.88358209,76.1955224 C6.6,76.1955224 3.94029851,73.5358209 3.94029851,70.2522388 L3.94029851,34.8880597 C3.94029851,33.6402985 4.48208955,32.441791 5.41791045,31.6208955 L11.9029851,25.9402985 C12.1,26.2029851 12.2970149,26.4656716 12.4940299,26.7283582 C15.0059701,29.7985075 18.3716418,31.4895522 21.9835821,31.4895522 L21.9835821,31.4895522 C23.0671642,31.4895522 23.9537313,30.6029851 23.9537313,29.519403 C23.9537313,28.4358209 23.0671642,27.5492537 21.9835821,27.5492537 C19.5701493,27.5492537 17.2880597,26.3671642 15.5477612,24.2328358 C15.3179104,23.9373134 15.0880597,23.641791 14.8746269,23.3298507 L21.5074627,17.5179104 C21.6716418,17.3701493 21.8522388,17.3373134 21.9835821,17.3373134 C22.1149254,17.3373134 22.2955224,17.3701493 22.4597015,17.5179104 L38.5656716,31.6208955 C39.5014925,32.441791 40.0432836,33.6402985 40.0432836,34.8880597 L40.0432836,70.2522388 L40.0597015,70.2522388 Z" id="Shape"></path>
                    <path d="M24.1671642,49.8283582 L19.8328358,49.8283582 C18.3059701,49.8283582 17.058209,48.580597 17.058209,47.0537313 C17.058209,45.5268657 18.3059701,44.2791045 19.8328358,44.2791045 L27.4671642,44.2791045 C28.5507463,44.2791045 29.4373134,43.3925373 29.4373134,42.3089552 C29.4373134,41.2253731 28.5507463,40.338806 27.4671642,40.338806 L23.9701493,40.338806 L23.9701493,37.7776119 C23.9701493,36.6940299 23.0835821,35.8074627 22,35.8074627 C20.9164179,35.8074627 20.0298507,36.6940299 20.0298507,37.7776119 L20.0298507,40.338806 L19.8328358,40.338806 C16.1223881,40.338806 13.1179104,43.3597015 13.1179104,47.0537313 C13.1179104,50.7641791 16.138806,53.7686567 19.8328358,53.7686567 L24.1671642,53.7686567 C25.6940299,53.7686567 26.941791,55.0164179 26.941791,56.5432836 C26.941791,58.0701493 25.6940299,59.3179104 24.1671642,59.3179104 L16.3850746,59.3179104 C15.3014925,59.3179104 14.4149254,60.2044776 14.4149254,61.2880597 C14.4149254,62.3716418 15.3014925,63.258209 16.3850746,63.258209 L20.0298507,63.258209 L20.0298507,65.8686567 C20.0298507,66.9522388 20.9164179,67.838806 22,67.838806 C23.0835821,67.838806 23.9701493,66.9522388 23.9701493,65.8686567 L23.9701493,63.258209 L24.2,63.258209 C24.2164179,63.258209 24.2328358,63.258209 24.2492537,63.258209 C27.9104478,63.2089552 30.8820896,60.2208955 30.8820896,56.5432836 C30.8820896,52.8328358 27.861194,49.8283582 24.1671642,49.8283582 Z" id="Path"></path>
                </g>
            </g>
        </g>
    </g>
</svg>