<?xml version="1.0" encoding="UTF-8"?>
<svg width="50px" height="71px" viewBox="0 0 50 71" version="1.1" xmlns="http://www.w3.org/2000/svg" xmlns:xlink="http://www.w3.org/1999/xlink">
    <!-- Generator: Sketch 55 (78076) - https://sketchapp.com -->
    <title>icon_2</title>
    <desc>Created with Sketch.</desc>
    <g id="current" stroke="none" stroke-width="1" fill="none" fill-rule="evenodd">
        <g id="DaxBase-07" transform="translate(-792.000000, -1922.000000)" fill="#05C9D8" fill-rule="nonzero">
            <g id="part-2" transform="translate(379.000000, 1910.000000)">
                <g id="icon_2" transform="translate(413.000000, 12.000000)">
                    <path d="M47.543295,26.9022989 L40.4622605,26.9022989 L42.5578544,18.0155172 C44.1743295,11.1622605 39.9130268,4.27164751 33.0601533,2.65536398 L23.266092,0.34559387 C19.9471264,-0.43697318 16.5204981,0.119348659 13.6191571,1.91321839 C10.7178161,3.70708812 8.68888889,6.52337165 7.90613027,9.84348659 C7.60249042,11.1308429 8.4,12.4203065 9.68716475,12.7237548 C10.9739464,13.0273946 12.2639847,12.2298851 12.567433,10.9427203 C13.056705,8.86800766 14.3247126,7.10785441 16.137931,5.98678161 C17.9511494,4.86551724 20.091954,4.51743295 22.1670498,5.00708812 L31.9611111,7.31685824 C36.2438697,8.32701149 38.9070881,12.6333333 37.8969349,16.9162835 L35.5415709,26.9022989 L2.53908046,26.9022989 C1.21666667,26.9022989 0.144444444,27.9745211 0.144444444,29.2969349 L0.144444444,52.68659 C0.144444444,62.4475096 8.08563218,70.3886973 17.8465517,70.3886973 L32.2356322,70.3886973 C41.9965517,70.3886973 49.9377395,62.4475096 49.9377395,52.68659 L49.9377395,29.2969349 C49.937931,27.9745211 48.8659004,26.9022989 47.543295,26.9022989 Z M45.148659,52.68659 C45.148659,59.8068966 39.3559387,65.5994253 32.2360153,65.5994253 L17.8467433,65.5994253 C10.7266284,65.5994253 4.93390805,59.8068966 4.93390805,52.68659 L4.93390805,31.6915709 L45.1488506,31.6915709 L45.148659,52.68659 L45.148659,52.68659 Z" id="Shape"></path>
                    <path d="M22.6465517,52.6494253 C22.6465517,53.9718391 23.7185824,55.0440613 25.0411877,55.0440613 C26.36341,55.0440613 27.4358238,53.9718391 27.4358238,52.6494253 L27.4358238,45.8122605 C27.7208812,45.4181992 27.8908046,44.9354406 27.8908046,44.4116858 C27.8908046,43.0894636 26.8183908,42.0170498 25.4961686,42.0170498 L24.5862069,42.0170498 C23.2637931,42.0170498 22.1915709,43.0894636 22.1915709,44.4116858 C22.1915709,44.9350575 22.3614943,45.4181992 22.6465517,45.8122605 L22.6465517,52.6494253 Z" id="Path"></path>
                </g>
            </g>
        </g>
    </g>
</svg>