<?xml version="1.0" encoding="UTF-8"?>
<svg width="66px" height="73px" viewBox="0 0 66 73" version="1.1" xmlns="http://www.w3.org/2000/svg" xmlns:xlink="http://www.w3.org/1999/xlink">
    <!-- Generator: Sketch 55 (78076) - https://sketchapp.com -->
    <title>icon_5</title>
    <desc>Created with Sketch.</desc>
    <g id="current" stroke="none" stroke-width="1" fill="none" fill-rule="evenodd">
        <g id="DaxBase-07" transform="translate(-784.000000, -2053.000000)" fill="#05C9D8" fill-rule="nonzero">
            <g id="part-2" transform="translate(379.000000, 1910.000000)">
                <g id="icon_5" transform="translate(405.000000, 143.000000)">
                    <path d="M65.287257,56.8395822 L54.0147813,45.5671065 C58.1297583,40.737716 60.6176769,34.4817258 60.6176769,27.6549844 C60.6176769,12.4056257 48.2120512,-2.84217094e-14 32.9632493,-2.84217094e-14 C17.7144472,-2.84217094e-14 5.30826468,12.4056257 5.30826468,27.6549844 C5.30826468,34.4822827 7.79618314,40.7382728 11.9117171,45.5676633 L0.639798156,56.8395822 C0.0378644708,57.441516 -0.159253581,58.3374562 0.133639309,59.135951 C0.426532199,59.9344459 1.15653682,60.4901626 2.00458963,60.5603233 L11.6316313,61.3532499 L12.4245579,70.9802916 C12.4947186,71.8283444 13.0504353,72.558349 13.8489302,72.8512419 C14.647425,73.1441348 15.5433652,72.9464599 16.145299,72.3450831 L32.9632493,55.5271328 L49.7817561,72.3450831 C50.1988223,72.762149 50.7567663,72.9848812 51.3264039,72.9848812 C51.578648,72.9848812 51.8331197,72.9414484 52.0781251,72.8512419 C52.8766199,72.558349 53.4323367,71.8283444 53.5024973,70.9802916 L54.2954239,61.3532499 L63.9224655,60.5603233 C64.7705184,60.4901626 65.5005231,59.9344459 65.7934159,59.135951 C66.0863088,58.3374562 65.8891907,57.4409591 65.287257,56.8395822 L65.287257,56.8395822 Z M32.9632493,4.36722128 C45.8037594,4.36722128 56.2504556,14.8139174 56.2504556,27.6549844 C56.2504556,40.4954947 45.8037594,50.9421909 32.9632493,50.9421909 C20.1221821,50.9421909 9.67604276,40.4954947 9.67604276,27.6549844 C9.67604276,14.8139174 20.1221821,4.36722128 32.9632493,4.36722128 Z M15.8323603,59.1498717 C15.7449379,58.0857688 14.9002261,57.241057 13.8355663,57.1530778 L7.06116695,56.5945768 L14.996001,48.6597429 C18.522965,51.6811049 22.8161279,53.8310272 27.5397205,54.7742981 L16.3903044,65.9237143 L15.8323603,59.1498717 Z M52.091489,57.1530778 C51.0268292,57.241057 50.1821173,58.0857688 50.0946949,59.1498717 L49.5367507,65.9237143 L38.3873347,54.7737413 C43.1109274,53.8304704 47.4040902,51.6805481 50.9310542,48.6591859 L58.8658882,56.5945768 L52.091489,57.1530778 Z" id="Shape"></path>
                    <path d="M32.9632493,45.9735928 C43.0641535,45.9735928 51.2818575,37.7558889 51.2818575,27.6549844 C51.2818575,17.5535232 43.0641535,9.33637625 32.9632493,9.33637625 C22.8623447,9.33637625 14.6440841,17.5535232 14.6440841,27.6549844 C14.6440841,37.7558889 22.8623447,45.9735928 32.9632493,45.9735928 Z M32.9632493,13.7035974 C40.6558619,13.7035974 46.9146362,19.9618149 46.9146362,27.6549844 C46.9146362,35.3475972 40.6558619,41.6063715 32.9632493,41.6063715 C25.2700797,41.6063715 19.0118622,35.3475972 19.0118622,27.6549844 C19.0118622,19.9618149 25.2700797,13.7035974 32.9632493,13.7035974 Z" id="Shape"></path>
                    <path d="M32.9632493,34.8108126 C34.169344,34.8108126 35.1465814,33.8330184 35.1465814,32.6274805 L35.1465814,22.6824886 C35.1465814,21.4763937 34.169344,20.4985995 32.9632493,20.4985995 C31.7571544,20.4985995 30.7793602,21.4763937 30.7793602,22.6824886 L30.7793602,32.6274805 C30.7793602,33.8330184 31.7571544,34.8108126 32.9632493,34.8108126 Z" id="Path"></path>
                </g>
            </g>
        </g>
    </g>
</svg>