<?xml version="1.0" encoding="UTF-8"?>
<svg width="15px" height="16px" viewBox="0 0 15 16" version="1.1" xmlns="http://www.w3.org/2000/svg" xmlns:xlink="http://www.w3.org/1999/xlink">
    <!-- Generator: Sketch 55 (78076) - https://sketchapp.com -->
    <title>instagram</title>
    <desc>Created with Sketch.</desc>
    <g id="current" stroke="none" stroke-width="1" fill="none" fill-rule="evenodd">
        <g id="DaxBase-07" transform="translate(-1306.000000, -4087.000000)" fill="#FFFFFF" fill-rule="nonzero">
            <g id="Group" transform="translate(380.000000, 3585.000000)">
                <g id="social-links" transform="translate(779.000000, 498.000000)">
                    <path d="M158.258698,6.36834773 L151.125272,6.36834773 C149.986675,6.36834773 149.060333,7.29469055 149.060333,8.43328694 L149.060333,15.5667133 C149.060333,16.7053097 149.986675,17.6319191 151.125272,17.6319191 L158.258698,17.6319191 C159.397295,17.6319191 160.323904,16.7055763 160.323904,15.5667133 L160.323904,8.43328694 C160.323904,7.29469055 159.397561,6.36834773 158.258698,6.36834773 Z M154.691985,15.7080379 C152.647578,15.7080379 150.984214,14.0446739 150.984214,12.0000001 C150.984214,9.95559297 152.647578,8.29222898 154.691985,8.29222898 C156.736659,8.29222898 158.400023,9.95559297 158.400023,12.0000001 C158.400023,14.0444073 156.736392,15.7080379 154.691985,15.7080379 Z M158.519215,9.05884832 C158.035245,9.05884832 157.64167,8.66527262 157.64167,8.18156914 C157.64167,7.69786566 158.035245,7.30428996 158.519215,7.30428996 C159.002919,7.30428996 159.396495,7.69786566 159.396495,8.18156914 C159.396495,8.66527262 159.002919,9.05884832 158.519215,9.05884832 Z M161.890474,15.5667133 C161.890474,17.569523 160.261508,19.1984891 158.258698,19.1984891 L151.125272,19.1984891 C149.122729,19.1984891 147.493496,17.569523 147.493496,15.5667133 L147.493496,8.43328694 C147.493496,6.43074388 149.122729,4.80151111 151.125272,4.80151111 L158.258698,4.80151111 C160.261508,4.80151111 161.890474,6.43074388 161.890474,8.43328694 L161.890474,15.5667133 Z M154.691985,9.8590656 C153.511791,9.8590656 152.550784,10.8195396 152.550784,11.9997335 C152.550784,13.1804606 153.511791,14.1412013 154.691985,14.1412013 C155.872712,14.1412013 156.83292,13.1804606 156.83292,11.9997335 C156.83292,10.8198063 155.872446,9.8590656 154.691985,9.8590656 Z" id="instagram"></path>
                </g>
            </g>
        </g>
    </g>
</svg>