<?xml version="1.0" encoding="UTF-8"?>
<svg width="193px" height="30px" viewBox="0 0 193 30" version="1.1" xmlns="http://www.w3.org/2000/svg" xmlns:xlink="http://www.w3.org/1999/xlink">
    <!-- Generator: Sketch 55 (78076) - https://sketchapp.com -->
    <title>logo</title>
    <desc>Created with Sketch.</desc>
    <g id="current" stroke="none" stroke-width="1" fill="none" fill-rule="evenodd">
        <g id="DaxBase-07" transform="translate(-300.000000, -40.000000)" fill-rule="nonzero">
            <g id="part-1" transform="translate(300.000000, 40.000000)">
                <g id="Header">
                    <g id="logo" transform="translate(96.500000, 15.000000) rotate(-360.000000) translate(-96.500000, -15.000000) ">
                        <path d="M19.8582291,18.9561816 C19.9580468,18.3796776 20.0115939,17.7736951 20.0115939,17.1449123 C20.0115939,12.8237387 17.4826576,9.57937959 14.7864778,9.57937959 C12.0902979,9.57937959 9.56136163,12.8237387 9.56136163,17.1449123 C9.56136163,17.7607713 9.61273019,18.3547576 9.70863023,18.9205965 C9.87892525,19.7441073 10.2309252,20.2065216 10.7646301,20.3078393 C11.8298797,20.5100648 13.3169343,20.3299654 14.0939779,18.8027428 C14.1027021,18.7855962 14.1113733,18.7692178 14.1199862,18.7535932 C14.2021487,18.5206654 14.1915304,18.3598998 14.0881311,18.2712963 C13.9243502,18.1020229 13.6368033,18.135983 13.2254905,18.3731766 C13.2252518,18.3729662 13.2250142,18.372755 13.2247779,18.3725428 L12.4115513,18.8530857 C12.3080337,18.9142552 12.1745286,18.8799253 12.1133592,18.7764078 C12.0935374,18.7428633 12.0830811,18.704614 12.0830811,18.6656507 L12.0830811,16.5984417 C12.0830811,16.478202 12.1805546,16.3807285 12.3007942,16.3807285 C12.3397575,16.3807285 12.3780068,16.3911849 12.4115513,16.4110067 L13.3551369,16.96858 C13.6990563,17.1418027 13.9441806,17.1527959 14.0905097,17.0015596 C14.2358546,16.8770127 14.1978738,16.6098805 13.9765672,16.2001629 L13.4745996,15.3506792 C13.4134301,15.2471616 13.44776,15.1136565 13.5512775,15.052487 C13.584822,15.0326652 13.6230714,15.0222089 13.6620346,15.0222089 L15.7292436,15.0222089 C15.8494833,15.0222089 15.9469568,15.1196825 15.9469568,15.2399221 C15.9469568,15.2788853 15.9365005,15.3171346 15.9166787,15.3506792 L15.4400573,16.1572692 C15.4402212,16.157488 15.4403843,16.1577075 15.4405467,16.1579278 C15.2002702,16.5899169 15.1551037,16.8701553 15.3050474,16.9986429 C15.4617774,17.160629 15.7318466,17.1365036 16.1152547,16.9262664 L16.9872328,16.4110067 C17.0207773,16.3911849 17.0590265,16.3807285 17.0979898,16.3807285 C17.2182295,16.3807285 17.315703,16.478202 17.315703,16.5984417 L17.315703,18.6656507 C17.315703,18.704614 17.3052466,18.7428633 17.2854248,18.7764078 C17.2242554,18.8799253 17.0907503,18.9142552 16.9872328,18.8530857 L16.0399964,18.2933552 C15.7075991,18.1306563 15.469805,18.1233034 15.326614,18.2712963 C15.2146636,18.3672272 15.2114747,18.5477497 15.3170472,18.8128633 C16.0954899,20.3307607 17.5757423,20.5096173 18.6386342,20.3078393 C19.1646025,20.2079903 19.5711341,19.7574376 19.8582291,18.9561816 Z M14.8044953,20.9653506 L14.8044957,21.4447475 C14.2634172,21.4447475 13.8247864,21.8833782 13.8247864,22.4244568 C13.8247864,22.9655353 14.2634172,23.404166 14.8044957,23.404166 L14.8044957,24.3548882 C12.9752051,24.3473941 11.1822,24.3880425 9.42548031,24.4768334 C7.54343713,24.5719586 5.69188021,24.7479804 3.87080957,25.0048986 C3.63268785,25.038494 3.41241829,24.8726918 3.37882384,24.63457 C3.37598094,24.6144187 3.37455416,24.5940927 3.37455416,24.5737419 L3.37455307,21.5574804 C3.37455307,21.5481622 3.37484764,21.5389055 3.37542839,21.5297196 C2.69610668,20.8391116 2.08080746,20.036475 1.55977629,19.1340225 C-1.05543635,14.6043411 -0.30539107,9.27525932 3.23504955,7.23118507 C5.48850868,5.93014977 8.32927261,6.27352372 10.7711372,7.86308493 C11.9602171,7.01466584 13.3293556,6.53139517 14.7864778,6.53139517 C16.250619,6.53139517 17.6259267,7.01933296 18.8189891,7.87537092 C21.2262652,6.36894109 23.9967151,6.06578671 26.2037892,7.34004166 C29.7442298,9.38411591 30.4942751,14.7131977 27.8790624,19.2428791 C27.3999839,20.0726673 26.8412069,20.8180667 26.2262434,21.4695832 C26.2316243,21.4969268 26.2344368,21.5251342 26.2344368,21.5539236 L26.2344368,24.5737419 C26.2344368,24.5940927 26.2330102,24.6144187 26.2301672,24.63457 C26.1965727,24.8726918 25.9763031,25.038494 25.7381815,25.0048986 C23.9171108,24.7479804 22.0655539,24.5719586 20.1835107,24.4768334 C18.426791,24.3880425 16.6337859,24.3473941 14.8044953,24.3548882 L14.8044957,23.404166 C15.3455742,23.404166 15.784205,22.9655353 15.784205,22.4244568 C15.784205,21.8833782 15.3455742,21.4447475 14.8044957,21.4447475 L14.8044953,20.9653506 Z M14.7864778,5.66054248 C13.2233622,5.66054248 11.9562065,4.39338689 11.9562065,2.83027124 C11.9562065,1.2671556 13.2233622,1.42108547e-13 14.7864778,1.42108547e-13 C16.3495935,1.42108547e-13 17.616749,1.2671556 17.616749,2.83027124 C17.616749,4.39338689 16.3495935,5.66054248 14.7864778,5.66054248 Z M20.9988089,10.1354613 C22.2815576,12.0050845 23.0595783,14.4584368 23.0595783,17.1449123 C23.0595783,18.3376821 22.906209,19.4844968 22.6233896,20.5546706 C23.5983128,19.9157911 24.5225862,18.9604975 25.2394305,17.7188869 C27.0837745,14.5243892 26.6001744,11.0884039 24.679797,9.97967356 C23.6790742,9.40190591 22.3261274,9.47801419 20.9988089,10.1354613 Z M8.5945486,10.1058359 C7.21833813,9.37605595 5.79863206,9.27060919 4.75904175,9.87081697 C2.8386644,10.9795473 2.35506422,14.4155326 4.19940819,17.6100303 C4.94727101,18.9053665 5.92090272,19.8890714 6.94227859,20.526969 C6.664113,19.4647154 6.51337722,18.3273968 6.51337722,17.1449123 C6.51337722,14.4442236 7.29965226,11.9791314 8.5945486,10.1058359 Z M4.35486716,26.5657489 C6.0266742,26.3986673 7.72384646,26.2823162 9.44638404,26.2166957 C11.1961358,26.1500385 12.982173,26.1196668 14.8044957,26.1255807 L14.8044957,29.0647085 C12.9752051,29.0590601 11.1822,29.0896972 9.42548031,29.1566198 C7.78331982,29.2191784 6.1643694,29.328157 4.56862894,29.4835558 C3.97026138,29.5418266 3.4379506,29.1039919 3.37967946,28.5056244 C3.37626462,28.4705584 3.37455416,28.4353472 3.37455416,28.4001152 L3.37455373,27.6489192 C3.37455373,27.0896423 3.79836257,26.6213665 4.35486716,26.5657489 Z M8.27310054,23.404166 C8.7540592,23.404166 9.14395323,23.014272 9.14395323,22.5333134 C9.14395323,22.0523547 8.7540592,21.6624607 8.27310054,21.6624607 C7.79214188,21.6624607 7.40224785,22.0523547 7.40224785,22.5333134 C7.40224785,23.014272 7.79214188,23.404166 8.27310054,23.404166 Z M5.17068783,23.6218792 C5.62158662,23.6218792 5.98711223,23.2563536 5.98711223,22.8054548 C5.98711223,22.354556 5.62158662,21.9890304 5.17068783,21.9890304 C4.71978905,21.9890304 4.35426344,22.354556 4.35426344,22.8054548 C4.35426344,23.2563536 4.71978905,23.6218792 5.17068783,23.6218792 Z M11.4299415,23.2953095 C11.9109002,23.2953095 12.3007942,22.9054154 12.3007942,22.4244568 C12.3007942,21.9434981 11.9109002,21.5536041 11.4299415,21.5536041 C10.9489829,21.5536041 10.5590889,21.9434981 10.5590889,22.4244568 C10.5590889,22.9054154 10.9489829,23.2953095 11.4299415,23.2953095 Z M25.2541238,26.5657489 C25.8106284,26.6213665 26.2344373,27.0896423 26.2344373,27.6489192 L26.2344368,28.4001152 C26.2344368,28.4353472 26.2327264,28.4705584 26.2293115,28.5056244 C26.1710404,29.1039919 25.6387296,29.5418266 25.0403621,29.4835558 C23.4446217,29.328157 21.8256712,29.2191784 20.1835107,29.1566198 C18.426791,29.0896972 16.6337859,29.0590601 14.8044953,29.0647085 L14.8044953,26.1255807 C16.626818,26.1196668 18.4128552,26.1500385 20.162607,26.2166957 C21.8851445,26.2823162 23.5823169,26.3986673 25.2541238,26.5657489 Z M21.3358905,23.404166 C21.8168491,23.404166 22.2067431,23.014272 22.2067431,22.5333134 C22.2067431,22.0523547 21.8168491,21.6624607 21.3358905,21.6624607 C20.8549318,21.6624607 20.4650378,22.0523547 20.4650378,22.5333134 C20.4650378,23.014272 20.8549318,23.404166 21.3358905,23.404166 Z M24.4383032,23.6218792 C24.8892019,23.6218792 25.2547276,23.2563536 25.2547276,22.8054548 C25.2547276,22.354556 24.8892019,21.9890304 24.4383032,21.9890304 C23.9874044,21.9890304 23.6218788,22.354556 23.6218788,22.8054548 C23.6218788,23.2563536 23.9874044,23.6218792 24.4383032,23.6218792 Z M18.1790495,23.2953095 C18.6600081,23.2953095 19.0499021,22.9054154 19.0499021,22.4244568 C19.0499021,21.9434981 18.6600081,21.5536041 18.1790495,21.5536041 C17.6980908,21.5536041 17.3081968,21.9434981 17.3081968,22.4244568 C17.3081968,22.9054154 17.6980908,23.2953095 18.1790495,23.2953095 Z" id="crown" fill="#E21536"></path>
                        <path d="M37.8347732,12.4765525 L48.9000857,12.4765525 L48.9000857,15.8310894 L41.4688548,15.8310894 L41.4688548,19.1856262 L48.3409963,19.1856262 L48.3409963,22.5401631 L41.4688548,22.5401631 L41.4688548,28.969692 L37.8347732,28.969692 L37.8347732,12.4765525 Z M51.9764482,12.4765525 L55.6105298,12.4765525 L55.6105298,28.969692 L51.9764482,28.969692 L51.9764482,12.4765525 Z M59.4323448,12.4765525 L64.3709685,12.4765525 L71.3828824,23.9378868 L71.4294731,23.9378868 L71.4294731,12.4765525 L75.0635547,12.4765525 L75.0635547,28.969692 L70.3112942,28.969692 L63.1130172,17.2288131 L63.0664264,17.2288131 L63.0664264,28.969692 L59.4323448,28.969692 L59.4323448,12.4765525 Z M78.9319606,12.4765525 L84.4296738,12.4765525 L88.2268231,23.2390249 L88.2734139,23.2390249 L92.0938586,12.4765525 L97.5682764,12.4765525 L97.5682764,28.969692 L93.9341948,28.969692 L93.9341948,16.3202927 L93.887604,16.3202927 L89.5546606,28.969692 L86.7825086,28.969692 L82.612633,16.3202927 L82.5660422,16.3202927 L82.5660422,28.969692 L78.9319606,28.969692 L78.9319606,12.4765525 Z M101.390091,12.4765525 L105.024173,12.4765525 L105.024173,28.969692 L101.390091,28.969692 L101.390091,12.4765525 Z M108.845988,12.4765525 L113.784612,12.4765525 L120.796526,23.9378868 L120.843116,23.9378868 L120.843116,12.4765525 L124.477198,12.4765525 L124.477198,28.969692 L119.724938,28.969692 L112.526661,17.2288131 L112.48007,17.2288131 L112.48007,28.969692 L108.845988,28.969692 L108.845988,12.4765525 Z M128.299013,12.4765525 L131.933095,12.4765525 L131.933095,28.969692 L128.299013,28.969692 L128.299013,12.4765525 Z M143.908298,16.5066558 C143.613221,16.1339276 143.213321,15.8582682 142.708585,15.6796693 C142.203849,15.5010704 141.726298,15.4117723 141.275918,15.4117723 C141.011903,15.4117723 140.740126,15.4428325 140.46058,15.5049539 C140.181033,15.5670752 139.917022,15.6641384 139.668536,15.7961463 C139.420051,15.9281542 139.218159,16.1028679 139.062856,16.3202927 C138.907552,16.5377174 138.829902,16.8017293 138.829902,17.1123361 C138.829902,17.609307 139.016263,17.9897946 139.388991,18.2538104 C139.76172,18.5178262 140.231505,18.7430128 140.798363,18.9293769 C141.36522,19.115741 141.974777,19.3021023 142.627051,19.4884664 C143.279326,19.6748305 143.888882,19.9388423 144.45574,20.2805098 C145.022597,20.6221773 145.492383,21.0803155 145.865111,21.6549381 C146.237839,22.2295607 146.424201,22.998301 146.424201,23.9611822 C146.424201,24.8774723 146.253369,25.6772728 145.911702,26.3606078 C145.570034,27.0439428 145.108014,27.6107918 144.525626,28.0611716 C143.943238,28.5115515 143.267678,28.8454488 142.498927,29.0628736 C141.730175,29.2802984 140.918727,29.3890091 140.064558,29.3890091 C138.992964,29.3890091 137.999037,29.225943 137.082747,28.8998059 C136.166457,28.5736687 135.312301,28.045645 134.520254,27.315719 L137.106043,24.4736808 C137.478771,24.9706518 137.948557,25.3550219 138.515414,25.6268029 C139.082271,25.8985839 139.668533,26.0344723 140.274216,26.0344723 C140.569293,26.0344723 140.868247,25.9995296 141.171089,25.929643 C141.473931,25.8597565 141.745708,25.7549283 141.986428,25.6151552 C142.227148,25.4753821 142.421275,25.2967859 142.568813,25.0793611 C142.716351,24.8619363 142.790119,24.6056896 142.790119,24.3106131 C142.790119,23.8136422 142.599875,23.421507 142.219382,23.1341956 C141.838888,22.8468843 141.361338,22.6022851 140.786715,22.4003907 C140.212092,22.1984963 139.590888,21.9966049 138.923083,21.7947104 C138.255279,21.592816 137.634074,21.3210391 137.059452,20.9793716 C136.484829,20.6377041 136.007278,20.187331 135.626785,19.6282387 C135.246292,19.0691465 135.056048,18.3314663 135.056048,17.4151762 C135.056048,16.5299468 135.230762,15.7534414 135.580194,15.0856367 C135.929627,14.4178321 136.39553,13.8587482 136.977918,13.4083683 C137.560306,12.9579884 138.231983,12.6202086 138.99297,12.3950186 C139.753956,12.1698287 140.538227,12.0572354 141.345805,12.0572354 C142.277625,12.0572354 143.178371,12.1892413 144.04807,12.4532571 C144.917769,12.7172729 145.70204,13.159881 146.400905,13.7810946 L143.908298,16.5066558 Z M152.831804,15.691317 L148.126135,15.691317 L148.126135,12.4765525 L161.171556,12.4765525 L161.171556,15.691317 L156.465886,15.691317 L156.465886,28.969692 L152.831804,28.969692 L152.831804,15.691317 Z M163.525761,12.4765525 L169.908699,12.4765525 C170.747338,12.4765525 171.543256,12.5580856 172.296477,12.7211542 C173.049699,12.8842228 173.709728,13.1559996 174.276586,13.536493 C174.843443,13.9169863 175.293816,14.4294799 175.627719,15.073989 C175.961621,15.7184982 176.12857,16.5221813 176.12857,17.4850624 C176.12857,18.649838 175.825732,19.6398824 175.220049,20.4552252 C174.614366,21.2705681 173.72915,21.7869442 172.564374,22.004369 L176.757545,28.969692 L172.401306,28.969692 L168.953588,22.3770953 L167.159843,22.3770953 L167.159843,28.969692 L163.525761,28.969692 L163.525761,12.4765525 Z M167.159843,19.3021032 L169.303019,19.3021032 C169.629156,19.3021032 169.974701,19.2904556 170.339664,19.2671601 C170.704627,19.2438646 171.034642,19.1739791 171.329718,19.0575016 C171.624795,18.941024 171.869394,18.7585452 172.063523,18.5100598 C172.257652,18.2615743 172.354716,17.9121469 172.354716,17.461767 C172.354716,17.0424478 172.2693,16.7085505 172.098466,16.460065 C171.927633,16.2115796 171.710211,16.0213358 171.446195,15.8893279 C171.182179,15.75732 170.879342,15.6680218 170.537675,15.6214308 C170.196007,15.5748398 169.86211,15.5515446 169.535973,15.5515446 L167.159843,15.5515446 L167.159843,19.3021032 Z M182.326515,21.9344828 L176.12994,12.4765525 L180.649246,12.4765525 L184.143556,18.6498321 L187.847523,12.4765525 L192.157172,12.4765525 L185.960597,21.9344828 L185.960597,28.969692 L182.326515,28.969692 L182.326515,21.9344828 Z" id="FINMINISTRY" fill="#FFFFFF"></path>
                    </g>
                </g>
            </g>
        </g>
    </g>
</svg>