<svg xmlns="http://www.w3.org/2000/svg" width="192" height="30" viewBox="0 0 192 30"><g><g transform="rotate(-360 96.5 15)"><path fill="#e21536" d="M17.308 22.43c0-.484.39-.876.871-.876s.87.392.87.875c0 .484-.389.876-.87.876a.873.873 0 0 1-.87-.876zm6.314.375a.816.816 0 1 1 1.633 0 .816.816 0 0 1-1.633 0zm-3.157-.272a.87.87 0 1 1 1.742 0 .87.87 0 0 1-1.742 0zm4.79 4.034c.556.056.98.526.98 1.086v.754a1.09 1.09 0 0 1-1.194 1.087 82.264 82.264 0 0 0-4.857-.328c-1.757-.067-3.55-.098-5.38-.093v-2.947a129.33 129.33 0 0 1 5.359.091c1.722.066 3.42.183 5.091.35zM10.558 22.43c0-.483.39-.875.87-.875.482 0 .872.392.872.875 0 .484-.39.876-.871.876a.873.873 0 0 1-.87-.876zm-6.205.376c0-.45.368-.816.822-.816.453 0 .821.366.821.816 0 .451-.368.817-.821.817a.819.819 0 0 1-.822-.817zm3.048-.272a.87.87 0 1 1 1.742 0 .87.87 0 0 1-1.742 0zm-3.047 4.034a82.702 82.702 0 0 1 5.091-.35 129.33 129.33 0 0 1 5.358-.091v2.947c-1.829-.005-3.622.026-5.379.093a82.273 82.273 0 0 0-4.856.328 1.09 1.09 0 0 1-1.194-1.087v-.754c0-.56.423-1.03.98-1.086zm2.158-9.422c0 1.182.151 2.32.43 3.382-1.022-.638-1.996-1.622-2.744-2.917-1.844-3.194-1.36-6.63.56-7.74 1.04-.6 2.46-.494 3.836.236-1.295 1.873-2.082 4.338-2.082 7.039zM24.68 9.98c1.92 1.108 2.404 4.544.56 7.739-.717 1.242-1.642 2.197-2.617 2.836.283-1.07.437-2.217.437-3.41 0-2.687-.778-5.14-2.061-7.01 1.327-.657 2.68-.733 3.68-.155zm-9.894-4.32a2.83 2.83 0 1 1 0-5.66 2.83 2.83 0 0 1 0 5.66zm3.853 14.648c-1.063.202-2.544.023-3.322-1.495-.106-.265-.102-.446.01-.542.143-.148.38-.14.713.022l.947.56a.218.218 0 0 0 .329-.187v-2.068a.218.218 0 0 0-.329-.187l-.872.515c-.383.21-.653.235-.81.073-.15-.129-.105-.41.136-.841l.476-.807a.218.218 0 0 0-.188-.329h-2.067a.218.218 0 0 0-.187.329l.502.85c.22.409.259.676.114.8-.147.152-.392.14-.736-.032l-.943-.558a.218.218 0 0 0-.329.187v2.068a.218.218 0 0 0 .329.187l.813-.48c.412-.237.7-.271.863-.102.104.089.114.25.032.483a1.692 1.692 0 0 0-.026.049c-.777 1.527-2.264 1.707-3.33 1.505-.533-.101-.885-.564-1.055-1.387a10.63 10.63 0 0 1-.148-1.776c0-4.321 2.53-7.566 5.225-7.566 2.697 0 5.226 3.245 5.226 7.566 0 .629-.054 1.235-.154 1.811-.287.801-.693 1.252-1.22 1.352z"/></g><g transform="rotate(-360 96.5 15)"><path fill="#fff" d="M182.323 21.937l-6.189-9.458h4.514l3.49 6.174 3.7-6.174h4.304l-6.189 9.458v7.035h-3.63zm-15.16-2.632h2.14c.325 0 .67-.012 1.034-.035.365-.023.694-.093.989-.21a1.71 1.71 0 0 0 .732-.547c.194-.249.29-.598.29-1.048 0-.42-.085-.754-.255-1.002a1.706 1.706 0 0 0-.651-.57 2.884 2.884 0 0 0-.907-.269 7.383 7.383 0 0 0-1-.07h-2.372zm-3.634-6.826h6.379c.838 0 1.633.082 2.386.245.752.163 1.412.435 1.979.815.566.38 1.016.893 1.35 1.538.333.644.5 1.448.5 2.41 0 1.166-.302 2.156-.908 2.971-.605.815-1.49 1.332-2.653 1.55l4.19 6.964h-4.353l-3.446-6.592h-1.792v6.592h-3.632zm-10.698 3.215h-4.702V12.48h13.036v3.215h-4.703v13.278h-3.631zm-8.928.815c-.295-.372-.695-.648-1.2-.827a4.293 4.293 0 0 0-1.43-.267c-.265 0-.536.03-.816.093a3.12 3.12 0 0 0-.791.29c-.248.133-.45.308-.605.525a1.328 1.328 0 0 0-.233.792c0 .497.186.878.559 1.142.372.264.842.489 1.408.675.566.187 1.175.373 1.827.56.652.186 1.261.45 1.828.791.566.342 1.035.8 1.408 1.375.372.574.558 1.343.558 2.306 0 .916-.17 1.716-.512 2.4a4.868 4.868 0 0 1-1.385 1.7 5.892 5.892 0 0 1-2.025 1.002 8.891 8.891 0 0 1-2.432.326c-1.071 0-2.064-.163-2.98-.49-.915-.326-1.769-.854-2.56-1.584l2.584-2.842c.372.497.841.882 1.408 1.154a4.018 4.018 0 0 0 1.757.407c.295 0 .594-.035.896-.105.303-.07.575-.174.815-.314s.435-.318.582-.536c.148-.217.221-.474.221-.769 0-.497-.19-.889-.57-1.176-.38-.287-.857-.532-1.432-.734a44.322 44.322 0 0 0-1.862-.606 8.36 8.36 0 0 1-1.862-.815 4.49 4.49 0 0 1-1.432-1.351c-.38-.56-.57-1.297-.57-2.213 0-.885.175-1.662.524-2.33a5.053 5.053 0 0 1 1.397-1.677 6.07 6.07 0 0 1 2.013-1.013 8.236 8.236 0 0 1 2.351-.338c.931 0 1.831.132 2.7.396a6.227 6.227 0 0 1 2.351 1.328zM128.3 12.48h3.634v16.493H128.3zm-19.454 0h4.936l7.007 11.462h.047V12.479h3.632v16.493h-4.75l-7.194-11.74h-.046v11.74h-3.632zm-7.457 0h3.625v16.493h-3.625zm-22.46 0h5.493l3.793 10.763h.047l3.816-10.763h5.47v16.493h-3.631V16.323h-.047l-4.328 12.65h-2.77l-4.165-12.65h-.047v12.65h-3.63zm-19.5 0h4.936l7.008 11.462h.046V12.479h3.632v16.493h-4.75l-7.193-11.74h-.047v11.74h-3.632zm-7.456 0h3.634v16.493h-3.634zm-14.143 0h11.056v3.355h-7.425v3.354h6.866v3.355h-6.866v6.43H37.83z"/></g></g></svg>