<?xml version="1.0" encoding="UTF-8"?>
<svg width="18px" height="14px" viewBox="0 0 18 14" version="1.1" xmlns="http://www.w3.org/2000/svg" xmlns:xlink="http://www.w3.org/1999/xlink">
    <!-- Generator: Sketch 55 (78076) - https://sketchapp.com -->
    <title>twitter</title>
    <desc>Created with Sketch.</desc>
    <g id="current" stroke="none" stroke-width="1" fill="none" fill-rule="evenodd">
        <g id="DaxBase-07" transform="translate(-1466.000000, -4090.000000)" fill="#F1F2F2" fill-rule="nonzero">
            <g id="Group" transform="translate(380.000000, 3585.000000)">
                <g id="social-links" transform="translate(779.000000, 498.000000)">
                    <path d="M322.734361,9.15003671 C323.454594,8.72525275 324.007319,8.05312624 324.268205,7.25092723 C323.594271,7.64447331 322.847507,7.92996705 322.053403,8.08385202 C321.417184,7.41684647 320.510715,7 319.506967,7 C317.581143,7 316.019207,8.53756942 316.019207,10.4333503 C316.019207,10.7024569 316.05016,10.9643942 316.109984,11.2158336 C313.211364,11.0727026 310.641258,9.70591735 308.920918,7.62808623 C308.620755,8.13506166 308.448565,8.72525275 308.448565,9.35436317 C308.448565,10.5452433 309.064756,11.5965772 310.000097,12.2121171 C309.428644,12.1944498 308.890485,12.0400527 308.420474,11.7822122 C308.420214,11.7968069 308.420214,11.8114017 308.420214,11.8257404 C308.420214,13.4892855 309.622943,14.8768107 311.218173,15.192006 C310.925814,15.2708689 310.617068,15.3126047 310.299479,15.3126047 C310.074227,15.3126047 309.855998,15.2913527 309.643232,15.2514092 C310.086972,16.6151219 311.374757,17.6078208 312.901318,17.63573 C311.707432,18.5567354 310.20376,19.1054467 308.569255,19.1054467 C308.28834,19.1054467 308.010027,19.0893156 307.737696,19.0573096 C309.280384,20.0318291 311.11413,20.6 313.083652,20.6 C319.498904,20.6 323.007212,15.3684232 323.007212,10.8309931 C323.007212,10.6822291 323.00383,10.5339772 322.997067,10.3870056 C323.679065,9.90307446 324.270286,9.29854467 324.737696,8.61003106 C324.112402,8.88297844 323.439768,9.06758919 322.734361,9.15003671 Z" id="twitter"></path>
                </g>
            </g>
        </g>
    </g>
</svg>